<?xml version="1.0" encoding="utf-8"?>
<!-- Generator: Adobe Illustrator 22.0.1, SVG Export Plug-In . SVG Version: 6.00 Build 0)  -->
<svg version="1.1" id="Layer_1" xmlns="http://www.w3.org/2000/svg" xmlns:xlink="http://www.w3.org/1999/xlink" x="0px" y="0px"
	 viewBox="0 0 512 512" style="enable-background:new 0 0 512 512;" xml:space="preserve">
<style type="text/css">
	.st0{fill:#35216D;}
	.st1{fill:#EDF3FC;}
	.st2{fill:#330D84;}
	.st3{fill:#FFBE1B;}
	.st4{fill:#0061F3;}
	.st5{fill:#8C7BFD;}
	.st6{fill:#FFFFFF;}
	.st7{fill:#5932AE;}
	.st8{fill:#1C46C4;}
	.st9{fill:#6857E5;}
	.st10{fill:#5D8EF9;}
	.st11{fill:#8AC9F9;}
	.st12{fill:#FFE37B;}
	.st13{fill:#FFD000;}
	.st14{fill:#2EF39E;}
	.st15{fill:#330D84;stroke:#330D84;stroke-width:0.6306;stroke-linecap:round;stroke-linejoin:round;stroke-miterlimit:10;}
	.st16{fill:#FFFFFF;stroke:#FFFFFF;stroke-width:0.737;stroke-linecap:round;stroke-linejoin:round;stroke-miterlimit:10;}
	.st17{fill:none;}
	.st18{fill:#FDB813;}
</style>
<g>
	<g>
		<g>
			<path class="st1" d="M255.999,40.928c-118.778,0-215.071,96.294-215.071,215.074c0,118.776,96.292,215.068,215.071,215.068
				S471.07,374.778,471.07,256.002C471.07,137.222,374.777,40.928,255.999,40.928z"/>
		</g>
	</g>
	<g>
		<g>
			<path class="st1" d="M255.999,1C115.391,1,1,115.392,1,256.002C1,396.609,115.391,511,255.999,511S511,396.609,511,256.002
				C511,115.392,396.607,1,255.999,1z M255.999,502.832c-136.103,0-246.83-110.728-246.83-246.83
				c0-136.104,110.727-246.833,246.83-246.833c136.102,0,246.832,110.729,246.832,246.833
				C502.831,392.104,392.101,502.832,255.999,502.832z"/>
		</g>
	</g>
	<path class="st2" d="M434.125,171.174l2.273,0.57l-2.273,0.57c-13.311,3.335-23.699,13.727-27.033,27.038l-0.572,2.271l-0.57-2.271
		c-3.334-13.311-13.725-23.703-27.04-27.038l-2.265-0.57l2.265-0.57c13.315-3.335,23.706-13.73,27.04-27.033l0.57-2.269l0.572,2.269
		C410.426,157.444,420.814,167.839,434.125,171.174L434.125,171.174z"/>
	<path class="st2" d="M394.446,114.262l1.137,0.285l-1.137,0.285c-6.656,1.668-11.85,6.863-13.517,13.519l-0.286,1.135l-0.285-1.135
		c-1.667-6.656-6.863-11.851-13.52-13.519l-1.133-0.285l1.133-0.285c6.657-1.668,11.853-6.865,13.52-13.517l0.285-1.134l0.286,1.134
		C382.597,107.398,387.791,112.595,394.446,114.262L394.446,114.262z"/>
	<path class="st3" d="M121.654,297.515l2.033,0.51l-2.033,0.508c-11.902,2.984-21.189,12.273-24.172,24.176l-0.511,2.029
		l-0.51-2.029c-2.98-11.902-12.272-21.191-24.177-24.176l-2.025-0.508l2.025-0.51c11.904-2.982,21.196-12.273,24.177-24.173
		l0.51-2.027l0.511,2.027C100.464,285.242,109.751,294.533,121.654,297.515L121.654,297.515z"/>
	<path class="st10" d="M247.31,424.759l1.586,0.398l-1.586,0.396c-9.287,2.329-16.534,9.577-18.861,18.864L228.051,446l-0.398-1.583
		c-2.326-9.287-9.576-16.535-18.865-18.864l-1.58-0.396l1.58-0.398c9.289-2.327,16.539-9.577,18.865-18.862l0.398-1.582l0.398,1.582
		C230.776,415.182,238.023,422.432,247.31,424.759L247.31,424.759z"/>
	<path class="st10" d="M194.75,407.899l1.132,0.284l-1.132,0.283c-6.625,1.661-11.795,6.832-13.455,13.457l-0.284,1.13l-0.284-1.13
		c-1.659-6.625-6.831-11.796-13.458-13.457l-1.127-0.283l1.127-0.284c6.626-1.66,11.799-6.832,13.458-13.455l0.284-1.129
		l0.284,1.129C182.955,401.067,188.124,406.239,194.75,407.899L194.75,407.899z"/>
	<path class="st10" d="M349.442,382.514h-167.34c-11.397,0-20.633-9.237-20.633-20.637v-211.76c0-11.39,9.237-20.63,20.633-20.63
		h167.34c11.395,0,20.632,9.241,20.632,20.63v211.76C370.074,373.276,360.838,382.514,349.442,382.514L349.442,382.514z"/>
	<path class="st2" d="M182.102,382.514c-11.397,0-20.633-9.237-20.633-20.637v-211.76c0-11.39,9.237-20.63,20.633-20.63h20.139
		v253.027H182.102z"/>
	<path class="st3" d="M141.926,179.285L141.926,179.285c0-5.82,4.718-10.538,10.538-10.538h18.01c5.82,0,10.538,4.718,10.538,10.538
		l0,0c0,5.82-4.718,10.538-10.538,10.538h-18.01C146.644,189.822,141.926,185.104,141.926,179.285z"/>
	<path class="st3" d="M141.926,229.692L141.926,229.692c0-5.82,4.718-10.538,10.538-10.538h18.01c5.82,0,10.538,4.718,10.538,10.538
		l0,0c0,5.82-4.718,10.538-10.538,10.538h-18.01C146.644,240.23,141.926,235.512,141.926,229.692z"/>
	<path class="st3" d="M141.926,280.099L141.926,280.099c0-5.82,4.718-10.538,10.538-10.538h18.01c5.82,0,10.538,4.718,10.538,10.538
		l0,0c0,5.82-4.718,10.538-10.538,10.538h-18.01C146.644,290.637,141.926,285.919,141.926,280.099z"/>
	<path class="st3" d="M141.926,330.507L141.926,330.507c0-5.82,4.718-10.538,10.538-10.538h18.01c5.82,0,10.538,4.718,10.538,10.538
		l0,0c0,5.82-4.718,10.538-10.538,10.538h-18.01C146.644,341.045,141.926,336.327,141.926,330.507z"/>
	<path class="st3" d="M334.286,256c0,27.715-22.468,50.181-50.183,50.181c-27.714,0-50.181-22.466-50.181-50.181
		s22.467-50.181,50.181-50.181C311.818,205.819,334.286,228.285,334.286,256z"/>
	<path class="st6" d="M284.103,306.181c12.5,0,23.923-4.58,32.707-12.14c-0.489-4.903-3.877-9.095-8.671-10.539l-7.684-2.316
		c0,0-2.523-0.734-2.893-0.858c-2.343-0.787-4.152-1.616-4.549-2.854c-0.336-1.047-0.507-2.126-0.578-3.161
		c-0.042,0.025-0.085,0.047-0.127,0.072c0.958-0.564,1.926-1.204,2.912-1.974c4.102-3.208,7.917-6.842,7.917-10.922
		c0-0.512-0.017-1.33-0.046-2.371c0.29,0.056,0.596,0.055,0.881-0.085c0.955-0.467,1.83-4.223,2.151-5.436
		c0.319-1.213,0.417-2.924-0.957-4.042c-0.341-0.277-0.717-0.367-1.092-0.346c0.041-0.288,0.081-0.584,0.122-0.895
		c0.396-2.969,4.316-13.045-1.255-19.828c-2.1-2.559-4.725-3.862-7.628-3.506c-2.21-2.876-7.8-3.861-13.145-3.146
		c-5.895,0.788-9.311,1.771-13.549,4.642c-2.424,1.643-6.682,5.546-7.304,10.329c-0.57,4.371,0.536,9.346,1.377,12.403
		c-0.369-0.017-0.738,0.073-1.073,0.346c-1.374,1.118-1.275,2.829-0.957,4.042c0.319,1.213,1.194,4.969,2.151,5.436
		c0.757,0.369,1.656-0.173,1.999-0.416c-0.004,0.614-0.007,1.211-0.007,1.767c0,4.839,2.981,7.966,7.402,11.339
		c1.141,0.87,2.513,1.752,3.883,2.555c-0.069,1.045-0.24,2.137-0.58,3.196c-0.242,0.755-1.268,1.428-2.65,2.065
		c-0.857,0.396-6.13,2.037-6.13,2.037l-6.603,1.954c-4.809,1.424-8.219,5.608-8.726,10.514
		C260.185,301.603,271.607,306.181,284.103,306.181z"/>
</g>
</svg>
