<?xml version="1.0" encoding="utf-8"?>
<!-- Generator: Adobe Illustrator 22.0.1, SVG Export Plug-In . SVG Version: 6.00 Build 0)  -->
<svg version="1.1" xmlns="http://www.w3.org/2000/svg" xmlns:xlink="http://www.w3.org/1999/xlink" x="0px" y="0px"
	 viewBox="0 0 512 512" style="enable-background:new 0 0 512 512;" xml:space="preserve">
<style type="text/css">
	.st0{fill:#7585F0;stroke:#000000;stroke-width:20;stroke-linecap:round;stroke-linejoin:round;stroke-miterlimit:10;}
	.st1{fill:none;stroke:#000000;stroke-width:20;stroke-linecap:round;stroke-linejoin:round;stroke-miterlimit:10;}
	.st2{fill:#FFFFFF;}
	.st3{fill:#E4B75C;stroke:#000000;stroke-width:20;stroke-linecap:round;stroke-linejoin:round;stroke-miterlimit:10;}
	.st4{fill:#DE5A5A;stroke:#000000;stroke-width:20;stroke-linecap:round;stroke-linejoin:round;stroke-miterlimit:10;}
	.st5{fill:#D4F4FF;}
	.st6{fill:#D4F4FF;stroke:#000000;stroke-width:20;stroke-linecap:round;stroke-linejoin:round;stroke-miterlimit:10;}
	.st7{fill:#F2DF98;stroke:#000000;stroke-width:20;stroke-linecap:round;stroke-linejoin:round;stroke-miterlimit:10;}
	.st8{fill:#FFFFFF;stroke:#000000;stroke-width:20;stroke-linecap:round;stroke-linejoin:round;stroke-miterlimit:10;}
	.st9{fill:#87BF8C;stroke:#000000;stroke-width:20;stroke-linecap:round;stroke-linejoin:round;stroke-miterlimit:10;}
	.st10{fill:#7585F0;}
	.st11{fill:#EDD4B4;stroke:#000000;stroke-width:20;stroke-linecap:round;stroke-linejoin:round;stroke-miterlimit:10;}
	.st12{fill:#E4B75C;}
	.st13{fill:#AACF9A;stroke:#000000;stroke-width:20;stroke-linecap:round;stroke-linejoin:round;stroke-miterlimit:10;}
	.st14{fill:#E8C673;stroke:#000000;stroke-width:20;stroke-linecap:round;stroke-linejoin:round;stroke-miterlimit:10;}
	.st15{fill:#F2DF98;}
	.st16{fill:#D0524E;stroke:#000000;stroke-width:20;stroke-linecap:round;stroke-linejoin:round;stroke-miterlimit:10;}
	.st17{fill:#87BF8C;}
	.st18{fill:#AACF9A;}
	.st19{fill:#DE5A5A;}
	.st20{fill:#E8C673;}
	.st21{fill:#7ACBAA;}
	.st22{fill:#EFCDC2;}
	.st23{fill:#6B7DFA;stroke:#000000;stroke-width:20;stroke-linecap:round;stroke-linejoin:round;stroke-miterlimit:10;}
</style>
<g id="GUIDELINES">
</g>
<g id="ICON_1_">
	<g>
		<path class="st0" d="M45.7,67.6H29.9c-11,0-19.9,8.9-19.9,19.9V406c0,28.5,23.1,51.6,51.6,51.6h148c8.9,16.5,26.3,27.7,46.4,27.7
			c20.1,0,37.5-11.2,46.4-27.7h148c28.5,0,51.6-23.1,51.6-51.6V87.5c0-11-8.9-19.9-19.9-19.9h-14.8"/>
		<g>
			<path class="st5" d="M462,366.2V62.6l0-3.2c0.1-11.1-8.8-20.2-19.9-20.2h-147c-11.7,0-22.4,6.4-27.9,16.7v0
				c-1.7,3.2-5.6,6.7-11.2,6.7v303.7h141"/>
			<path class="st7" d="M256,366.2v77.3c5.6,0,9.5-3.5,11.2-6.7l11.3-21h23.9H428c18.8,0,34-15.2,34-34v-15.5H256z"/>
			<line class="st1" x1="256" y1="366.2" x2="397" y2="366.2"/>
			<path class="st1" d="M381.8,39.2h-86.6c-11.7,0-22.4,6.4-27.9,16.7v0c-1.7,3.2-5.6,6.7-11.2,6.7"/>
			<line class="st1" x1="462" y1="157.1" x2="462" y2="115.5"/>
			<line class="st1" x1="462" y1="366.2" x2="462" y2="233.3"/>
		</g>
		<g>
			<path class="st7" d="M50,366.2v15.5c0,18.8,15.2,34,34,34h125.6h23.9l11.3,21c1.7,3.2,5.6,6.7,11.2,6.7v-77.3"/>
			<path class="st2" d="M123,366.2h133V62.6c-5.6,0-9.5-3.5-11.2-6.7l0,0c-5.5-10.3-16.3-16.7-27.9-16.7h-147
				c-11.1,0-20.1,9.1-19.9,20.2l0,3.2v303.7"/>
			<line class="st1" x1="123" y1="366.2" x2="256" y2="366.2"/>
			<path class="st1" d="M256,297.1V62.6c-5.6,0-9.5-3.5-11.2-6.7l0,0c-5.5-10.3-16.3-16.7-27.9-16.7h-147
				c-11.1,0-20.1,9.1-19.9,20.2l0,3.2v303.7"/>
		</g>
		<g>
			<line class="st1" x1="199.9" y1="307.4" x2="105.9" y2="307.4"/>
			<line class="st1" x1="199.9" y1="263.3" x2="105.9" y2="263.3"/>
			<line class="st1" x1="199.9" y1="219.2" x2="105.9" y2="219.2"/>
			
				<rect x="105.9" y="114.2" transform="matrix(-1 -1.224647e-16 1.224647e-16 -1 305.7417 286.6596)" class="st14" width="94" height="58.2"/>
		</g>
		<g>
			<line class="st1" x1="312" y1="114.2" x2="381.8" y2="114.2"/>
			<line class="st1" x1="312" y1="158.3" x2="406" y2="158.3"/>
			<line class="st1" x1="312" y1="202.4" x2="406" y2="202.4"/>
			<rect x="312" y="249.2" class="st14" width="94" height="58.2"/>
		</g>
		<path class="st4" d="M451.8,133.3l-28.9-15.1L394,133.3c-4.7,2.4-10.3-0.9-10.3-6.2V26.7h61.5c9.2,0,16.7,7.5,16.7,16.7v83.7
			C462,132.3,456.4,135.7,451.8,133.3z"/>
	</g>
</g>
</svg>
